<?xml version="1.0" encoding="utf-8" ?>
<svg baseProfile="full" height="57.5mm" version="1.1" viewBox="0,0,306.20000000000005,57.5" width="306.20000000000005mm" xmlns="http://www.w3.org/2000/svg" xmlns:ev="http://www.w3.org/2001/xml-events" xmlns:xlink="http://www.w3.org/1999/xlink"><defs /><rect fill="#FFFFFF" height="57.5" width="306.20000000000005" x="0" y="0" /><text fill="#000000" style="font-size:6px; font-family:Arial; font-weight:bold;" x="10" y="10" /><text fill="#000000" style="font-size:3px; font-family:Arial;" x="10" y="14.4">2024: 183 hours</text><text fill="#000000" style="font-size:2.5px; font-family:Arial" x="10" y="18.3">Jan</text><rect fill="#a5e4a7" height="4" rx="1" ry="1" width="4" x="10" y="19.7"><title>2024-01-01 21.2 mins</title></rect><rect fill="#66be6b" height="4" rx="1" ry="1" width="4" x="10" y="25.1"><title>2024-01-02 36.68 mins</title></rect><rect fill="#aae6ac" height="4" rx="1" ry="1" width="4" x="10" y="30.5"><title>2024-01-03 6.45 mins</title></rect><rect fill="#549F57" height="4" rx="1" ry="1" width="4" x="10" y="35.9"><title>2024-01-04 128.48 mins</title></rect><rect fill="#a8e5aa" height="4" rx="1" ry="1" width="4" x="10" y="41.300000000000004"><title>2024-01-05 12.18 mins</title></rect><rect fill="#66bd6a" height="4" rx="1" ry="1" width="4" x="10" y="46.699999999999996"><title>2024-01-06 43.02 mins</title></rect><rect fill="#ace7ae" height="4" rx="1" ry="1" width="4" x="10" y="52.1"><title>2024-01-07 0.23 mins</title></rect><rect fill="#66be6b" height="4" rx="1" ry="1" width="4" x="15.4" y="19.7"><title>2024-01-08 37.72 mins</title></rect><rect fill="#a5e4a8" height="4" rx="1" ry="1" width="4" x="15.4" y="25.1"><title>2024-01-09 20.53 mins</title></rect><rect fill="#66be6a" height="4" rx="1" ry="1" width="4" x="15.4" y="30.5"><title>2024-01-10 42.32 mins</title></rect><rect fill="#66be6b" height="4" rx="1" ry="1" width="4" x="15.4" y="35.9"><title>2024-01-11 37.32 mins</title></rect><rect fill="#abe7ad" height="4" rx="1" ry="1" width="4" x="15.4" y="41.300000000000004"><title>2024-01-12 2.18 mins</title></rect><rect fill="#ace7ae" height="4" rx="1" ry="1" width="4" x="15.4" y="46.699999999999996"><title>2024-01-13 0.55 mins</title></rect><rect fill="#EBEDF0" height="4" rx="1" ry="1" width="4" x="15.4" y="52.1"><title>2024-01-14</title></rect><rect fill="#a6e4a8" height="4" rx="1" ry="1" width="4" x="20.8" y="19.7"><title>2024-01-15 17.45 mins</title></rect><rect fill="#aae6ac" height="4" rx="1" ry="1" width="4" x="20.8" y="25.1"><title>2024-01-16 5.4 mins</title></rect><rect fill="#63bb68" height="4" rx="1" ry="1" width="4" x="20.8" y="30.5"><title>2024-01-17 74.23 mins</title></rect><rect fill="#66be6b" height="4" rx="1" ry="1" width="4" x="20.8" y="35.9"><title>2024-01-18 39.05 mins</title></rect><rect fill="#549F57" height="4" rx="1" ry="1" width="4" x="20.8" y="41.300000000000004"><title>2024-01-19 171.37 mins</title></rect><rect fill="#EBEDF0" height="4" rx="1" ry="1" width="4" x="20.8" y="46.699999999999996"><title>2024-01-20</title></rect><rect fill="#a9e6ab" height="4" rx="1" ry="1" width="4" x="20.8" y="52.1"><title>2024-01-21 9.13 mins</title></rect><rect fill="#65bd6a" height="4" rx="1" ry="1" width="4" x="26.200000000000003" y="19.7"><title>2024-01-22 44.98 mins</title></rect><rect fill="#a5e4a7" height="4" rx="1" ry="1" width="4" x="26.200000000000003" y="25.1"><title>2024-01-23 22.62 mins</title></rect><rect fill="#65bd6a" height="4" rx="1" ry="1" width="4" x="26.200000000000003" y="30.5"><title>2024-01-24 51.55 mins</title></rect><rect fill="#ace7ae" height="4" rx="1" ry="1" width="4" x="26.200000000000003" y="35.9"><title>2024-01-25 1.08 mins</title></rect><rect fill="#a9e6ab" height="4" rx="1" ry="1" width="4" x="26.200000000000003" y="41.300000000000004"><title>2024-01-26 9.92 mins</title></rect><rect fill="#EBEDF0" height="4" rx="1" ry="1" width="4" x="26.200000000000003" y="46.699999999999996"><title>2024-01-27</title></rect><rect fill="#EBEDF0" height="4" rx="1" ry="1" width="4" x="26.200000000000003" y="52.1"><title>2024-01-28</title></rect><rect fill="#65bd6a" height="4" rx="1" ry="1" width="4" x="31.6" y="19.7"><title>2024-01-29 43.65 mins</title></rect><rect fill="#549F57" height="4" rx="1" ry="1" width="4" x="31.6" y="25.1"><title>2024-01-30 110.68 mins</title></rect><rect fill="#549F57" height="4" rx="1" ry="1" width="4" x="31.6" y="30.5"><title>2024-01-31 82.2 mins</title></rect><rect fill="#EBEDF0" height="4" rx="1" ry="1" width="4" x="31.6" y="35.9"><title>2024-02-01</title></rect><rect fill="#a8e5aa" height="4" rx="1" ry="1" width="4" x="31.6" y="41.300000000000004"><title>2024-02-02 12.88 mins</title></rect><rect fill="#549F57" height="4" rx="1" ry="1" width="4" x="31.6" y="46.699999999999996"><title>2024-02-03 122.7 mins</title></rect><rect fill="#a7e5a9" height="4" rx="1" ry="1" width="4" x="31.6" y="52.1"><title>2024-02-04 15.42 mins</title></rect><text fill="#000000" style="font-size:2.5px; font-family:Arial" x="37.0" y="18.3">Feb</text><rect fill="#a2e2a4" height="4" rx="1" ry="1" width="4" x="37.0" y="19.7"><title>2024-02-05 32.07 mins</title></rect><rect fill="#aae6ac" height="4" rx="1" ry="1" width="4" x="37.0" y="25.1"><title>2024-02-06 5.45 mins</title></rect><rect fill="#a8e5ab" height="4" rx="1" ry="1" width="4" x="37.0" y="30.5"><title>2024-02-07 10.82 mins</title></rect><rect fill="#a8e5aa" height="4" rx="1" ry="1" width="4" x="37.0" y="35.9"><title>2024-02-08 13.7 mins</title></rect><rect fill="#66be6b" height="4" rx="1" ry="1" width="4" x="37.0" y="41.300000000000004"><title>2024-02-09 39.53 mins</title></rect><rect fill="#66be6b" height="4" rx="1" ry="1" width="4" x="37.0" y="46.699999999999996"><title>2024-02-10 35.17 mins</title></rect><rect fill="#549F57" height="4" rx="1" ry="1" width="4" x="37.0" y="52.1"><title>2024-02-11 94.28 mins</title></rect><rect fill="#a9e6ab" height="4" rx="1" ry="1" width="4" x="42.4" y="19.7"><title>2024-02-12 9.98 mins</title></rect><rect fill="#a3e3a5" height="4" rx="1" ry="1" width="4" x="42.4" y="25.1"><title>2024-02-13 27.95 mins</title></rect><rect fill="#549F57" height="4" rx="1" ry="1" width="4" x="42.4" y="30.5"><title>2024-02-14 133.02 mins</title></rect><rect fill="#65bc69" height="4" rx="1" ry="1" width="4" x="42.4" y="35.9"><title>2024-02-15 55.58 mins</title></rect><rect fill="#66be6b" height="4" rx="1" ry="1" width="4" x="42.4" y="41.300000000000004"><title>2024-02-16 41.27 mins</title></rect><rect fill="#549F57" height="4" rx="1" ry="1" width="4" x="42.4" y="46.699999999999996"><title>2024-02-17 152.95 mins</title></rect><rect fill="#66be6b" height="4" rx="1" ry="1" width="4" x="42.4" y="52.1"><title>2024-02-18 35.23 mins</title></rect><rect fill="#a9e6ab" height="4" rx="1" ry="1" width="4" x="47.8" y="19.7"><title>2024-02-19 9.7 mins</title></rect><rect fill="#a1e2a3" height="4" rx="1" ry="1" width="4" x="47.8" y="25.1"><title>2024-02-20 34.03 mins</title></rect><rect fill="#549F57" height="4" rx="1" ry="1" width="4" x="47.8" y="30.5"><title>2024-02-21 86.23 mins</title></rect><rect fill="#549F57" height="4" rx="1" ry="1" width="4" x="47.8" y="35.9"><title>2024-02-22 76.17 mins</title></rect><rect fill="#ace7ae" height="4" rx="1" ry="1" width="4" x="47.8" y="41.300000000000004"><title>2024-02-23 0.75 mins</title></rect><rect fill="#63bb68" height="4" rx="1" ry="1" width="4" x="47.8" y="46.699999999999996"><title>2024-02-24 72.52 mins</title></rect><rect fill="#a2e3a5" height="4" rx="1" ry="1" width="4" x="47.8" y="52.1"><title>2024-02-25 29.68 mins</title></rect><rect fill="#65bd6a" height="4" rx="1" ry="1" width="4" x="53.199999999999996" y="19.7"><title>2024-02-26 49.2 mins</title></rect><rect fill="#a1e2a3" height="4" rx="1" ry="1" width="4" x="53.199999999999996" y="25.1"><title>2024-02-27 34.08 mins</title></rect><rect fill="#66be6b" height="4" rx="1" ry="1" width="4" x="53.199999999999996" y="30.5"><title>2024-02-28 40.58 mins</title></rect><rect fill="#549F57" height="4" rx="1" ry="1" width="4" x="53.199999999999996" y="35.9"><title>2024-02-29 79.02 mins</title></rect><rect fill="#549F57" height="4" rx="1" ry="1" width="4" x="53.199999999999996" y="41.300000000000004"><title>2024-03-01 82.67 mins</title></rect><rect fill="#a4e3a6" height="4" rx="1" ry="1" width="4" x="53.199999999999996" y="46.699999999999996"><title>2024-03-02 24.58 mins</title></rect><rect fill="#64bc69" height="4" rx="1" ry="1" width="4" x="53.199999999999996" y="52.1"><title>2024-03-03 63.65 mins</title></rect><text fill="#000000" style="font-size:2.5px; font-family:Arial" x="58.599999999999994" y="18.3">Mar</text><rect fill="#549F57" height="4" rx="1" ry="1" width="4" x="58.599999999999994" y="19.7"><title>2024-03-04 84.73 mins</title></rect><rect fill="#66be6a" height="4" rx="1" ry="1" width="4" x="58.599999999999994" y="25.1"><title>2024-03-05 41.42 mins</title></rect><rect fill="#aae6ac" height="4" rx="1" ry="1" width="4" x="58.599999999999994" y="30.5"><title>2024-03-06 6.33 mins</title></rect><rect fill="#abe7ad" height="4" rx="1" ry="1" width="4" x="58.599999999999994" y="35.9"><title>2024-03-07 2.15 mins</title></rect><rect fill="#a2e2a4" height="4" rx="1" ry="1" width="4" x="58.599999999999994" y="41.300000000000004"><title>2024-03-08 31.75 mins</title></rect><rect fill="#549F57" height="4" rx="1" ry="1" width="4" x="58.599999999999994" y="46.699999999999996"><title>2024-03-09 104.8 mins</title></rect><rect fill="#549F57" height="4" rx="1" ry="1" width="4" x="58.599999999999994" y="52.1"><title>2024-03-10 104.22 mins</title></rect><rect fill="#549F57" height="4" rx="1" ry="1" width="4" x="63.99999999999999" y="19.7"><title>2024-03-11 98.45 mins</title></rect><rect fill="#549F57" height="4" rx="1" ry="1" width="4" x="63.99999999999999" y="25.1"><title>2024-03-12 92.9 mins</title></rect><rect fill="#549F57" height="4" rx="1" ry="1" width="4" x="63.99999999999999" y="30.5"><title>2024-03-13 86.85 mins</title></rect><rect fill="#65bd6a" height="4" rx="1" ry="1" width="4" x="63.99999999999999" y="35.9"><title>2024-03-14 46.27 mins</title></rect><rect fill="#64bc69" height="4" rx="1" ry="1" width="4" x="63.99999999999999" y="41.300000000000004"><title>2024-03-15 62.8 mins</title></rect><rect fill="#a7e5a9" height="4" rx="1" ry="1" width="4" x="63.99999999999999" y="46.699999999999996"><title>2024-03-16 14.88 mins</title></rect><rect fill="#66bd6a" height="4" rx="1" ry="1" width="4" x="63.99999999999999" y="52.1"><title>2024-03-17 43.25 mins</title></rect><rect fill="#549F57" height="4" rx="1" ry="1" width="4" x="69.39999999999999" y="19.7"><title>2024-03-18 100.28 mins</title></rect><rect fill="#a2e3a5" height="4" rx="1" ry="1" width="4" x="69.39999999999999" y="25.1"><title>2024-03-19 29.98 mins</title></rect><rect fill="#a4e3a6" height="4" rx="1" ry="1" width="4" x="69.39999999999999" y="30.5"><title>2024-03-20 26.12 mins</title></rect><rect fill="#65bc69" height="4" rx="1" ry="1" width="4" x="69.39999999999999" y="35.9"><title>2024-03-21 56.08 mins</title></rect><rect fill="#65bd6a" height="4" rx="1" ry="1" width="4" x="69.39999999999999" y="41.300000000000004"><title>2024-03-22 45.72 mins</title></rect><rect fill="#a3e3a5" height="4" rx="1" ry="1" width="4" x="69.39999999999999" y="46.699999999999996"><title>2024-03-23 29.48 mins</title></rect><rect fill="#65bd6a" height="4" rx="1" ry="1" width="4" x="69.39999999999999" y="52.1"><title>2024-03-24 45.97 mins</title></rect><rect fill="#64bb68" height="4" rx="1" ry="1" width="4" x="74.8" y="19.7"><title>2024-03-25 67.62 mins</title></rect><rect fill="#65bd6a" height="4" rx="1" ry="1" width="4" x="74.8" y="25.1"><title>2024-03-26 43.73 mins</title></rect><rect fill="#a8e5aa" height="4" rx="1" ry="1" width="4" x="74.8" y="30.5"><title>2024-03-27 11.98 mins</title></rect><rect fill="#63bb68" height="4" rx="1" ry="1" width="4" x="74.8" y="35.9"><title>2024-03-28 72.5 mins</title></rect><rect fill="#549F57" height="4" rx="1" ry="1" width="4" x="74.8" y="41.300000000000004"><title>2024-03-29 104.13 mins</title></rect><rect fill="#a3e3a5" height="4" rx="1" ry="1" width="4" x="74.8" y="46.699999999999996"><title>2024-03-30 28.63 mins</title></rect><rect fill="#549F57" height="4" rx="1" ry="1" width="4" x="74.8" y="52.1"><title>2024-03-31 106.93 mins</title></rect><text fill="#000000" style="font-size:2.5px; font-family:Arial" x="80.2" y="18.3">Apr</text><rect fill="#a2e2a4" height="4" rx="1" ry="1" width="4" x="80.2" y="19.7"><title>2024-04-01 31.45 mins</title></rect><rect fill="#66be6b" height="4" rx="1" ry="1" width="4" x="80.2" y="25.1"><title>2024-04-02 39.65 mins</title></rect><rect fill="#63bb68" height="4" rx="1" ry="1" width="4" x="80.2" y="30.5"><title>2024-04-03 73.48 mins</title></rect><rect fill="#ace7ae" height="4" rx="1" ry="1" width="4" x="80.2" y="35.9"><title>2024-04-04 0.18 mins</title></rect><rect fill="#EBEDF0" height="4" rx="1" ry="1" width="4" x="80.2" y="41.300000000000004"><title>2024-04-05</title></rect><rect fill="#a3e3a5" height="4" rx="1" ry="1" width="4" x="80.2" y="46.699999999999996"><title>2024-04-06 27.52 mins</title></rect><rect fill="#a5e4a7" height="4" rx="1" ry="1" width="4" x="80.2" y="52.1"><title>2024-04-07 23.05 mins</title></rect><rect fill="#65bd6a" height="4" rx="1" ry="1" width="4" x="85.60000000000001" y="19.7"><title>2024-04-08 46.73 mins</title></rect><rect fill="#a6e4a8" height="4" rx="1" ry="1" width="4" x="85.60000000000001" y="25.1"><title>2024-04-09 17.68 mins</title></rect><rect fill="#66bd6a" height="4" rx="1" ry="1" width="4" x="85.60000000000001" y="30.5"><title>2024-04-10 42.93 mins</title></rect><rect fill="#64bc69" height="4" rx="1" ry="1" width="4" x="85.60000000000001" y="35.9"><title>2024-04-11 61.18 mins</title></rect><rect fill="#a4e3a6" height="4" rx="1" ry="1" width="4" x="85.60000000000001" y="41.300000000000004"><title>2024-04-12 26.23 mins</title></rect><rect fill="#65bd6a" height="4" rx="1" ry="1" width="4" x="85.60000000000001" y="46.699999999999996"><title>2024-04-13 49.45 mins</title></rect><rect fill="#63bb68" height="4" rx="1" ry="1" width="4" x="85.60000000000001" y="52.1"><title>2024-04-14 73.13 mins</title></rect><rect fill="#a2e2a4" height="4" rx="1" ry="1" width="4" x="91.00000000000001" y="19.7"><title>2024-04-15 31.13 mins</title></rect><rect fill="#64bc69" height="4" rx="1" ry="1" width="4" x="91.00000000000001" y="25.1"><title>2024-04-16 63.4 mins</title></rect><rect fill="#65bc69" height="4" rx="1" ry="1" width="4" x="91.00000000000001" y="30.5"><title>2024-04-17 55.85 mins</title></rect><rect fill="#ace7ae" height="4" rx="1" ry="1" width="4" x="91.00000000000001" y="35.9"><title>2024-04-18 0.4 mins</title></rect><rect fill="#a6e4a8" height="4" rx="1" ry="1" width="4" x="91.00000000000001" y="41.300000000000004"><title>2024-04-19 18.15 mins</title></rect><rect fill="#a8e5aa" height="4" rx="1" ry="1" width="4" x="91.00000000000001" y="46.699999999999996"><title>2024-04-20 11.32 mins</title></rect><rect fill="#ace7ae" height="4" rx="1" ry="1" width="4" x="91.00000000000001" y="52.1"><title>2024-04-21 0.18 mins</title></rect><rect fill="#a6e4a8" height="4" rx="1" ry="1" width="4" x="96.40000000000002" y="19.7"><title>2024-04-22 17.83 mins</title></rect><rect fill="#ace7ae" height="4" rx="1" ry="1" width="4" x="96.40000000000002" y="25.1"><title>2024-04-23 0.18 mins</title></rect><rect fill="#a6e4a8" height="4" rx="1" ry="1" width="4" x="96.40000000000002" y="30.5"><title>2024-04-24 18.33 mins</title></rect><rect fill="#65bd6a" height="4" rx="1" ry="1" width="4" x="96.40000000000002" y="35.9"><title>2024-04-25 52.6 mins</title></rect><rect fill="#a4e3a6" height="4" rx="1" ry="1" width="4" x="96.40000000000002" y="41.300000000000004"><title>2024-04-26 26.33 mins</title></rect><rect fill="#65bd6a" height="4" rx="1" ry="1" width="4" x="96.40000000000002" y="46.699999999999996"><title>2024-04-27 47.82 mins</title></rect><rect fill="#66be6b" height="4" rx="1" ry="1" width="4" x="96.40000000000002" y="52.1"><title>2024-04-28 36.77 mins</title></rect><rect fill="#66be6b" height="4" rx="1" ry="1" width="4" x="101.80000000000003" y="19.7"><title>2024-04-29 36.22 mins</title></rect><rect fill="#549F57" height="4" rx="1" ry="1" width="4" x="101.80000000000003" y="25.1"><title>2024-04-30 101.03 mins</title></rect><rect fill="#66be6b" height="4" rx="1" ry="1" width="4" x="101.80000000000003" y="30.5"><title>2024-05-01 39.63 mins</title></rect><rect fill="#a2e2a4" height="4" rx="1" ry="1" width="4" x="101.80000000000003" y="35.9"><title>2024-05-02 32.28 mins</title></rect><rect fill="#aae6ac" height="4" rx="1" ry="1" width="4" x="101.80000000000003" y="41.300000000000004"><title>2024-05-03 7.32 mins</title></rect><rect fill="#a4e3a6" height="4" rx="1" ry="1" width="4" x="101.80000000000003" y="46.699999999999996"><title>2024-05-04 26.22 mins</title></rect><rect fill="#63bb68" height="4" rx="1" ry="1" width="4" x="101.80000000000003" y="52.1"><title>2024-05-05 69.48 mins</title></rect><text fill="#000000" style="font-size:2.5px; font-family:Arial" x="107.20000000000003" y="18.3">May</text><rect fill="#a7e5a9" height="4" rx="1" ry="1" width="4" x="107.20000000000003" y="19.7"><title>2024-05-06 15.18 mins</title></rect><rect fill="#549F57" height="4" rx="1" ry="1" width="4" x="107.20000000000003" y="25.1"><title>2024-05-07 126.37 mins</title></rect><rect fill="#549F57" height="4" rx="1" ry="1" width="4" x="107.20000000000003" y="30.5"><title>2024-05-08 145.03 mins</title></rect><rect fill="#549F57" height="4" rx="1" ry="1" width="4" x="107.20000000000003" y="35.9"><title>2024-05-09 107.63 mins</title></rect><rect fill="#549F57" height="4" rx="1" ry="1" width="4" x="107.20000000000003" y="41.300000000000004"><title>2024-05-10 160.53 mins</title></rect><rect fill="#549F57" height="4" rx="1" ry="1" width="4" x="107.20000000000003" y="46.699999999999996"><title>2024-05-11 102.1 mins</title></rect><rect fill="#ace7ae" height="4" rx="1" ry="1" width="4" x="107.20000000000003" y="52.1"><title>2024-05-12 0.03 mins</title></rect><rect fill="#66be6b" height="4" rx="1" ry="1" width="4" x="112.60000000000004" y="19.7"><title>2024-05-13 40.87 mins</title></rect><rect fill="#63bb68" height="4" rx="1" ry="1" width="4" x="112.60000000000004" y="25.1"><title>2024-05-14 72.5 mins</title></rect><rect fill="#64bc69" height="4" rx="1" ry="1" width="4" x="112.60000000000004" y="30.5"><title>2024-05-15 57.3 mins</title></rect><rect fill="#a3e3a5" height="4" rx="1" ry="1" width="4" x="112.60000000000004" y="35.9"><title>2024-05-16 28.08 mins</title></rect><rect fill="#64bc69" height="4" rx="1" ry="1" width="4" x="112.60000000000004" y="41.300000000000004"><title>2024-05-17 61.13 mins</title></rect><rect fill="#66be6a" height="4" rx="1" ry="1" width="4" x="112.60000000000004" y="46.699999999999996"><title>2024-05-18 41.77 mins</title></rect><rect fill="#549F57" height="4" rx="1" ry="1" width="4" x="112.60000000000004" y="52.1"><title>2024-05-19 121.17 mins</title></rect><rect fill="#aae6ac" height="4" rx="1" ry="1" width="4" x="118.00000000000004" y="19.7"><title>2024-05-20 4.75 mins</title></rect><rect fill="#EBEDF0" height="4" rx="1" ry="1" width="4" x="118.00000000000004" y="25.1"><title>2024-05-21</title></rect><rect fill="#aae6ac" height="4" rx="1" ry="1" width="4" x="118.00000000000004" y="30.5"><title>2024-05-22 7.42 mins</title></rect><rect fill="#a8e5ab" height="4" rx="1" ry="1" width="4" x="118.00000000000004" y="35.9"><title>2024-05-23 10.83 mins</title></rect><rect fill="#a3e3a5" height="4" rx="1" ry="1" width="4" x="118.00000000000004" y="41.300000000000004"><title>2024-05-24 29.25 mins</title></rect><rect fill="#ace7ae" height="4" rx="1" ry="1" width="4" x="118.00000000000004" y="46.699999999999996"><title>2024-05-25 0.12 mins</title></rect><rect fill="#EBEDF0" height="4" rx="1" ry="1" width="4" x="118.00000000000004" y="52.1"><title>2024-05-26</title></rect><rect fill="#a8e5aa" height="4" rx="1" ry="1" width="4" x="123.40000000000005" y="19.7"><title>2024-05-27 12.98 mins</title></rect><rect fill="#a3e3a5" height="4" rx="1" ry="1" width="4" x="123.40000000000005" y="25.1"><title>2024-05-28 28.38 mins</title></rect><rect fill="#64bc69" height="4" rx="1" ry="1" width="4" x="123.40000000000005" y="30.5"><title>2024-05-29 58.68 mins</title></rect><rect fill="#549F57" height="4" rx="1" ry="1" width="4" x="123.40000000000005" y="35.9"><title>2024-05-30 86.33 mins</title></rect><rect fill="#a1e2a3" height="4" rx="1" ry="1" width="4" x="123.40000000000005" y="41.300000000000004"><title>2024-05-31 34.77 mins</title></rect><rect fill="#aae6ac" height="4" rx="1" ry="1" width="4" x="123.40000000000005" y="46.699999999999996"><title>2024-06-01 5.1 mins</title></rect><rect fill="#a6e4a8" height="4" rx="1" ry="1" width="4" x="123.40000000000005" y="52.1"><title>2024-06-02 19.57 mins</title></rect><text fill="#000000" style="font-size:2.5px; font-family:Arial" x="128.80000000000004" y="18.3">Jun</text><rect fill="#65bd6a" height="4" rx="1" ry="1" width="4" x="128.80000000000004" y="19.7"><title>2024-06-03 45.68 mins</title></rect><rect fill="#a8e5aa" height="4" rx="1" ry="1" width="4" x="128.80000000000004" y="25.1"><title>2024-06-04 13.83 mins</title></rect><rect fill="#a6e4a8" height="4" rx="1" ry="1" width="4" x="128.80000000000004" y="30.5"><title>2024-06-05 19.83 mins</title></rect><rect fill="#65bd6a" height="4" rx="1" ry="1" width="4" x="128.80000000000004" y="35.9"><title>2024-06-06 48.23 mins</title></rect><rect fill="#66be6b" height="4" rx="1" ry="1" width="4" x="128.80000000000004" y="41.300000000000004"><title>2024-06-07 38.8 mins</title></rect><rect fill="#EBEDF0" height="4" rx="1" ry="1" width="4" x="128.80000000000004" y="46.699999999999996"><title>2024-06-08</title></rect><rect fill="#66be6b" height="4" rx="1" ry="1" width="4" x="128.80000000000004" y="52.1"><title>2024-06-09 37.2 mins</title></rect><rect fill="#65bd6a" height="4" rx="1" ry="1" width="4" x="134.20000000000005" y="19.7"><title>2024-06-10 50.7 mins</title></rect><rect fill="#66be6b" height="4" rx="1" ry="1" width="4" x="134.20000000000005" y="25.1"><title>2024-06-11 39.62 mins</title></rect><rect fill="#65bd6a" height="4" rx="1" ry="1" width="4" x="134.20000000000005" y="30.5"><title>2024-06-12 51.47 mins</title></rect><rect fill="#a1e2a3" height="4" rx="1" ry="1" width="4" x="134.20000000000005" y="35.9"><title>2024-06-13 34.33 mins</title></rect><rect fill="#65bd6a" height="4" rx="1" ry="1" width="4" x="134.20000000000005" y="41.300000000000004"><title>2024-06-14 49.83 mins</title></rect><rect fill="#a3e3a6" height="4" rx="1" ry="1" width="4" x="134.20000000000005" y="46.699999999999996"><title>2024-06-15 26.6 mins</title></rect><rect fill="#549F57" height="4" rx="1" ry="1" width="4" x="134.20000000000005" y="52.1"><title>2024-06-16 176.53 mins</title></rect><rect fill="#64bc69" height="4" rx="1" ry="1" width="4" x="139.60000000000005" y="19.7"><title>2024-06-17 58.75 mins</title></rect><rect fill="#65bd6a" height="4" rx="1" ry="1" width="4" x="139.60000000000005" y="25.1"><title>2024-06-18 51.53 mins</title></rect><rect fill="#66bd6a" height="4" rx="1" ry="1" width="4" x="139.60000000000005" y="30.5"><title>2024-06-19 43.57 mins</title></rect><rect fill="#ace7ae" height="4" rx="1" ry="1" width="4" x="139.60000000000005" y="35.9"><title>2024-06-20 0.18 mins</title></rect><rect fill="#a6e4a8" height="4" rx="1" ry="1" width="4" x="139.60000000000005" y="41.300000000000004"><title>2024-06-21 17.9 mins</title></rect><rect fill="#a6e4a8" height="4" rx="1" ry="1" width="4" x="139.60000000000005" y="46.699999999999996"><title>2024-06-22 18.58 mins</title></rect><rect fill="#549F57" height="4" rx="1" ry="1" width="4" x="139.60000000000005" y="52.1"><title>2024-06-23 114.65 mins</title></rect><rect fill="#64bc69" height="4" rx="1" ry="1" width="4" x="145.00000000000006" y="19.7"><title>2024-06-24 59.47 mins</title></rect><rect fill="#66be6b" height="4" rx="1" ry="1" width="4" x="145.00000000000006" y="25.1"><title>2024-06-25 39.28 mins</title></rect><rect fill="#549F57" height="4" rx="1" ry="1" width="4" x="145.00000000000006" y="30.5"><title>2024-06-26 136.88 mins</title></rect><rect fill="#549F57" height="4" rx="1" ry="1" width="4" x="145.00000000000006" y="35.9"><title>2024-06-27 98.65 mins</title></rect><rect fill="#549F57" height="4" rx="1" ry="1" width="4" x="145.00000000000006" y="41.300000000000004"><title>2024-06-28 84.65 mins</title></rect><rect fill="#a3e3a6" height="4" rx="1" ry="1" width="4" x="145.00000000000006" y="46.699999999999996"><title>2024-06-29 26.53 mins</title></rect><rect fill="#66be6b" height="4" rx="1" ry="1" width="4" x="145.00000000000006" y="52.1"><title>2024-06-30 38.43 mins</title></rect><text fill="#000000" style="font-size:2.5px; font-family:Arial" x="150.40000000000006" y="18.3">Jul</text><rect fill="#64bb68" height="4" rx="1" ry="1" width="4" x="150.40000000000006" y="19.7"><title>2024-07-01 67.53 mins</title></rect><rect fill="#a1e2a4" height="4" rx="1" ry="1" width="4" x="150.40000000000006" y="25.1"><title>2024-07-02 33.08 mins</title></rect><rect fill="#549F57" height="4" rx="1" ry="1" width="4" x="150.40000000000006" y="30.5"><title>2024-07-03 82.22 mins</title></rect><rect fill="#64bc69" height="4" rx="1" ry="1" width="4" x="150.40000000000006" y="35.9"><title>2024-07-04 60.3 mins</title></rect><rect fill="#66be6b" height="4" rx="1" ry="1" width="4" x="150.40000000000006" y="41.300000000000004"><title>2024-07-05 37.35 mins</title></rect><rect fill="#ace7ae" height="4" rx="1" ry="1" width="4" x="150.40000000000006" y="46.699999999999996"><title>2024-07-06 0.18 mins</title></rect><rect fill="#66bd6a" height="4" rx="1" ry="1" width="4" x="150.40000000000006" y="52.1"><title>2024-07-07 43.32 mins</title></rect><rect fill="#a9e6ab" height="4" rx="1" ry="1" width="4" x="155.80000000000007" y="19.7"><title>2024-07-08 9.58 mins</title></rect><rect fill="#aae6ac" height="4" rx="1" ry="1" width="4" x="155.80000000000007" y="25.1"><title>2024-07-09 4.98 mins</title></rect><rect fill="#EBEDF0" height="4" rx="1" ry="1" width="4" x="155.80000000000007" y="30.5"><title>2024-07-10</title></rect><rect fill="#EBEDF0" height="4" rx="1" ry="1" width="4" x="155.80000000000007" y="35.9"><title>2024-07-11</title></rect><rect fill="#aae6ac" height="4" rx="1" ry="1" width="4" x="155.80000000000007" y="41.300000000000004"><title>2024-07-12 5.75 mins</title></rect><rect fill="#66be6b" height="4" rx="1" ry="1" width="4" x="155.80000000000007" y="46.699999999999996"><title>2024-07-13 40.08 mins</title></rect><rect fill="#65bd6a" height="4" rx="1" ry="1" width="4" x="155.80000000000007" y="52.1"><title>2024-07-14 49.57 mins</title></rect><rect fill="#a4e3a6" height="4" rx="1" ry="1" width="4" x="161.20000000000007" y="19.7"><title>2024-07-15 26.2 mins</title></rect><rect fill="#abe7ad" height="4" rx="1" ry="1" width="4" x="161.20000000000007" y="25.1"><title>2024-07-16 1.68 mins</title></rect><rect fill="#abe7ad" height="4" rx="1" ry="1" width="4" x="161.20000000000007" y="30.5"><title>2024-07-17 2.03 mins</title></rect><rect fill="#abe6ad" height="4" rx="1" ry="1" width="4" x="161.20000000000007" y="35.9"><title>2024-07-18 4.32 mins</title></rect><rect fill="#aae6ac" height="4" rx="1" ry="1" width="4" x="161.20000000000007" y="41.300000000000004"><title>2024-07-19 5.9 mins</title></rect><rect fill="#EBEDF0" height="4" rx="1" ry="1" width="4" x="161.20000000000007" y="46.699999999999996"><title>2024-07-20</title></rect><rect fill="#EBEDF0" height="4" rx="1" ry="1" width="4" x="161.20000000000007" y="52.1"><title>2024-07-21</title></rect><rect fill="#ace7ae" height="4" rx="1" ry="1" width="4" x="166.60000000000008" y="19.7"><title>2024-07-22 0.78 mins</title></rect><rect fill="#ace7ae" height="4" rx="1" ry="1" width="4" x="166.60000000000008" y="25.1"><title>2024-07-23 1.0 mins</title></rect><rect fill="#ace7ae" height="4" rx="1" ry="1" width="4" x="166.60000000000008" y="30.5"><title>2024-07-24 0.28 mins</title></rect><rect fill="#EBEDF0" height="4" rx="1" ry="1" width="4" x="166.60000000000008" y="35.9"><title>2024-07-25</title></rect><rect fill="#ace7ae" height="4" rx="1" ry="1" width="4" x="166.60000000000008" y="41.300000000000004"><title>2024-07-26 1.05 mins</title></rect><rect fill="#a2e3a5" height="4" rx="1" ry="1" width="4" x="166.60000000000008" y="46.699999999999996"><title>2024-07-27 30.02 mins</title></rect><rect fill="#aae6ac" height="4" rx="1" ry="1" width="4" x="166.60000000000008" y="52.1"><title>2024-07-28 6.28 mins</title></rect><rect fill="#65bd69" height="4" rx="1" ry="1" width="4" x="172.00000000000009" y="19.7"><title>2024-07-29 53.8 mins</title></rect><rect fill="#aae6ac" height="4" rx="1" ry="1" width="4" x="172.00000000000009" y="25.1"><title>2024-07-30 7.65 mins</title></rect><rect fill="#a7e5aa" height="4" rx="1" ry="1" width="4" x="172.00000000000009" y="30.5"><title>2024-07-31 14.03 mins</title></rect><rect fill="#ace7ae" height="4" rx="1" ry="1" width="4" x="172.00000000000009" y="35.9"><title>2024-08-01 0.18 mins</title></rect><rect fill="#66be6b" height="4" rx="1" ry="1" width="4" x="172.00000000000009" y="41.300000000000004"><title>2024-08-02 38.47 mins</title></rect><rect fill="#a9e6ab" height="4" rx="1" ry="1" width="4" x="172.00000000000009" y="46.699999999999996"><title>2024-08-03 8.18 mins</title></rect><rect fill="#ace7ae" height="4" rx="1" ry="1" width="4" x="172.00000000000009" y="52.1"><title>2024-08-04 1.38 mins</title></rect><text fill="#000000" style="font-size:2.5px; font-family:Arial" x="177.4000000000001" y="18.3">Aug</text><rect fill="#EBEDF0" height="4" rx="1" ry="1" width="4" x="177.4000000000001" y="19.7"><title>2024-08-05</title></rect><rect fill="#EBEDF0" height="4" rx="1" ry="1" width="4" x="177.4000000000001" y="25.1"><title>2024-08-06</title></rect><rect fill="#a4e4a7" height="4" rx="1" ry="1" width="4" x="177.4000000000001" y="30.5"><title>2024-08-07 23.4 mins</title></rect><rect fill="#EBEDF0" height="4" rx="1" ry="1" width="4" x="177.4000000000001" y="35.9"><title>2024-08-08</title></rect><rect fill="#aae6ac" height="4" rx="1" ry="1" width="4" x="177.4000000000001" y="41.300000000000004"><title>2024-08-09 6.52 mins</title></rect><rect fill="#EBEDF0" height="4" rx="1" ry="1" width="4" x="177.4000000000001" y="46.699999999999996"><title>2024-08-10</title></rect><rect fill="#aae6ac" height="4" rx="1" ry="1" width="4" x="177.4000000000001" y="52.1"><title>2024-08-11 6.25 mins</title></rect><rect fill="#a8e5aa" height="4" rx="1" ry="1" width="4" x="182.8000000000001" y="19.7"><title>2024-08-12 13.68 mins</title></rect><rect fill="#65bd69" height="4" rx="1" ry="1" width="4" x="182.8000000000001" y="25.1"><title>2024-08-13 54.77 mins</title></rect><rect fill="#a3e3a5" height="4" rx="1" ry="1" width="4" x="182.8000000000001" y="30.5"><title>2024-08-14 29.42 mins</title></rect><rect fill="#EBEDF0" height="4" rx="1" ry="1" width="4" x="182.8000000000001" y="35.9"><title>2024-08-15</title></rect><rect fill="#EBEDF0" height="4" rx="1" ry="1" width="4" x="182.8000000000001" y="41.300000000000004"><title>2024-08-16</title></rect><rect fill="#EBEDF0" height="4" rx="1" ry="1" width="4" x="182.8000000000001" y="46.699999999999996"><title>2024-08-17</title></rect><rect fill="#EBEDF0" height="4" rx="1" ry="1" width="4" x="182.8000000000001" y="52.1"><title>2024-08-18</title></rect><rect fill="#EBEDF0" height="4" rx="1" ry="1" width="4" x="188.2000000000001" y="19.7"><title>2024-08-19</title></rect><rect fill="#EBEDF0" height="4" rx="1" ry="1" width="4" x="188.2000000000001" y="25.1"><title>2024-08-20</title></rect><rect fill="#EBEDF0" height="4" rx="1" ry="1" width="4" x="188.2000000000001" y="30.5"><title>2024-08-21</title></rect><rect fill="#aae6ad" height="4" rx="1" ry="1" width="4" x="188.2000000000001" y="35.9"><title>2024-08-22 4.67 mins</title></rect><rect fill="#abe7ad" height="4" rx="1" ry="1" width="4" x="188.2000000000001" y="41.300000000000004"><title>2024-08-23 2.02 mins</title></rect><rect fill="#EBEDF0" height="4" rx="1" ry="1" width="4" x="188.2000000000001" y="46.699999999999996"><title>2024-08-24</title></rect><rect fill="#a2e2a4" height="4" rx="1" ry="1" width="4" x="188.2000000000001" y="52.1"><title>2024-08-25 32.2 mins</title></rect><rect fill="#ace7ae" height="4" rx="1" ry="1" width="4" x="193.6000000000001" y="19.7"><title>2024-08-26 0.12 mins</title></rect><rect fill="#ace7ae" height="4" rx="1" ry="1" width="4" x="193.6000000000001" y="25.1"><title>2024-08-27 0.12 mins</title></rect><rect fill="#65bc69" height="4" rx="1" ry="1" width="4" x="193.6000000000001" y="30.5"><title>2024-08-28 55.27 mins</title></rect><rect fill="#65bd6a" height="4" rx="1" ry="1" width="4" x="193.6000000000001" y="35.9"><title>2024-08-29 48.3 mins</title></rect><rect fill="#a6e4a8" height="4" rx="1" ry="1" width="4" x="193.6000000000001" y="41.300000000000004"><title>2024-08-30 19.38 mins</title></rect><rect fill="#a4e3a6" height="4" rx="1" ry="1" width="4" x="193.6000000000001" y="46.699999999999996"><title>2024-08-31 25.13 mins</title></rect><rect fill="#abe6ad" height="4" rx="1" ry="1" width="4" x="193.6000000000001" y="52.1"><title>2024-09-01 3.98 mins</title></rect><text fill="#000000" style="font-size:2.5px; font-family:Arial" x="199.0000000000001" y="18.3">Sep</text><rect fill="#a6e4a8" height="4" rx="1" ry="1" width="4" x="199.0000000000001" y="19.7"><title>2024-09-02 17.92 mins</title></rect><rect fill="#a5e4a7" height="4" rx="1" ry="1" width="4" x="199.0000000000001" y="25.1"><title>2024-09-03 22.68 mins</title></rect><rect fill="#a5e4a8" height="4" rx="1" ry="1" width="4" x="199.0000000000001" y="30.5"><title>2024-09-04 20.1 mins</title></rect><rect fill="#a8e5aa" height="4" rx="1" ry="1" width="4" x="199.0000000000001" y="35.9"><title>2024-09-05 11.05 mins</title></rect><rect fill="#a8e5aa" height="4" rx="1" ry="1" width="4" x="199.0000000000001" y="41.300000000000004"><title>2024-09-06 12.77 mins</title></rect><rect fill="#aae6ac" height="4" rx="1" ry="1" width="4" x="199.0000000000001" y="46.699999999999996"><title>2024-09-07 5.1 mins</title></rect><rect fill="#a6e4a8" height="4" rx="1" ry="1" width="4" x="199.0000000000001" y="52.1"><title>2024-09-08 17.9 mins</title></rect><rect fill="#a6e4a8" height="4" rx="1" ry="1" width="4" x="204.40000000000012" y="19.7"><title>2024-09-09 19.37 mins</title></rect><rect fill="#EBEDF0" height="4" rx="1" ry="1" width="4" x="204.40000000000012" y="25.1"><title>2024-09-10</title></rect><rect fill="#549F57" height="4" rx="1" ry="1" width="4" x="204.40000000000012" y="30.5"><title>2024-09-11 181.65 mins</title></rect><rect fill="#a9e6ab" height="4" rx="1" ry="1" width="4" x="204.40000000000012" y="35.9"><title>2024-09-12 8.87 mins</title></rect><rect fill="#ace7ae" height="4" rx="1" ry="1" width="4" x="204.40000000000012" y="41.300000000000004"><title>2024-09-13 1.47 mins</title></rect><rect fill="#ace7ae" height="4" rx="1" ry="1" width="4" x="204.40000000000012" y="46.699999999999996"><title>2024-09-14 0.35 mins</title></rect><rect fill="#66be6a" height="4" rx="1" ry="1" width="4" x="204.40000000000012" y="52.1"><title>2024-09-15 42.12 mins</title></rect><rect fill="#64bc69" height="4" rx="1" ry="1" width="4" x="209.80000000000013" y="19.7"><title>2024-09-16 62.6 mins</title></rect><rect fill="#a2e2a4" height="4" rx="1" ry="1" width="4" x="209.80000000000013" y="25.1"><title>2024-09-17 32.1 mins</title></rect><rect fill="#a4e3a6" height="4" rx="1" ry="1" width="4" x="209.80000000000013" y="30.5"><title>2024-09-18 25.45 mins</title></rect><rect fill="#EBEDF0" height="4" rx="1" ry="1" width="4" x="209.80000000000013" y="35.9"><title>2024-09-19</title></rect><rect fill="#a9e6ab" height="4" rx="1" ry="1" width="4" x="209.80000000000013" y="41.300000000000004"><title>2024-09-20 9.95 mins</title></rect><rect fill="#65bd69" height="4" rx="1" ry="1" width="4" x="209.80000000000013" y="46.699999999999996"><title>2024-09-21 53.7 mins</title></rect><rect fill="#a7e5a9" height="4" rx="1" ry="1" width="4" x="209.80000000000013" y="52.1"><title>2024-09-22 15.43 mins</title></rect><rect fill="#a7e5a9" height="4" rx="1" ry="1" width="4" x="215.20000000000013" y="19.7"><title>2024-09-23 15.03 mins</title></rect><rect fill="#a5e4a7" height="4" rx="1" ry="1" width="4" x="215.20000000000013" y="25.1"><title>2024-09-24 23.15 mins</title></rect><rect fill="#a8e5aa" height="4" rx="1" ry="1" width="4" x="215.20000000000013" y="30.5"><title>2024-09-25 12.08 mins</title></rect><rect fill="#a5e4a7" height="4" rx="1" ry="1" width="4" x="215.20000000000013" y="35.9"><title>2024-09-26 21.2 mins</title></rect><rect fill="#a7e5aa" height="4" rx="1" ry="1" width="4" x="215.20000000000013" y="41.300000000000004"><title>2024-09-27 13.97 mins</title></rect><rect fill="#aae6ac" height="4" rx="1" ry="1" width="4" x="215.20000000000013" y="46.699999999999996"><title>2024-09-28 6.68 mins</title></rect><rect fill="#aae6ac" height="4" rx="1" ry="1" width="4" x="215.20000000000013" y="52.1"><title>2024-09-29 6.53 mins</title></rect><rect fill="#66be6b" height="4" rx="1" ry="1" width="4" x="220.60000000000014" y="19.7"><title>2024-09-30 40.7 mins</title></rect><rect fill="#65bd6a" height="4" rx="1" ry="1" width="4" x="220.60000000000014" y="25.1"><title>2024-10-01 52.42 mins</title></rect><rect fill="#a3e3a5" height="4" rx="1" ry="1" width="4" x="220.60000000000014" y="30.5"><title>2024-10-02 27.22 mins</title></rect><rect fill="#a9e6ac" height="4" rx="1" ry="1" width="4" x="220.60000000000014" y="35.9"><title>2024-10-03 7.72 mins</title></rect><rect fill="#a1e2a3" height="4" rx="1" ry="1" width="4" x="220.60000000000014" y="41.300000000000004"><title>2024-10-04 33.85 mins</title></rect><rect fill="#a6e4a8" height="4" rx="1" ry="1" width="4" x="220.60000000000014" y="46.699999999999996"><title>2024-10-05 18.35 mins</title></rect><rect fill="#a6e4a8" height="4" rx="1" ry="1" width="4" x="220.60000000000014" y="52.1"><title>2024-10-06 19.83 mins</title></rect><text fill="#000000" style="font-size:2.5px; font-family:Arial" x="226.00000000000014" y="18.3">Oct</text><rect fill="#66be6b" height="4" rx="1" ry="1" width="4" x="226.00000000000014" y="19.7"><title>2024-10-07 40.28 mins</title></rect><rect fill="#ace7ae" height="4" rx="1" ry="1" width="4" x="226.00000000000014" y="25.1"><title>2024-10-08 0.18 mins</title></rect><rect fill="#66be6b" height="4" rx="1" ry="1" width="4" x="226.00000000000014" y="30.5"><title>2024-10-09 38.7 mins</title></rect><rect fill="#66be6b" height="4" rx="1" ry="1" width="4" x="226.00000000000014" y="35.9"><title>2024-10-10 36.57 mins</title></rect><rect fill="#a8e5aa" height="4" rx="1" ry="1" width="4" x="226.00000000000014" y="41.300000000000004"><title>2024-10-11 13.85 mins</title></rect><rect fill="#64bc69" height="4" rx="1" ry="1" width="4" x="226.00000000000014" y="46.699999999999996"><title>2024-10-12 60.82 mins</title></rect><rect fill="#65bd6a" height="4" rx="1" ry="1" width="4" x="226.00000000000014" y="52.1"><title>2024-10-13 51.3 mins</title></rect><rect fill="#a3e3a5" height="4" rx="1" ry="1" width="4" x="231.40000000000015" y="19.7"><title>2024-10-14 28.88 mins</title></rect><rect fill="#66be6b" height="4" rx="1" ry="1" width="4" x="231.40000000000015" y="25.1"><title>2024-10-15 41.02 mins</title></rect><rect fill="#66bd6a" height="4" rx="1" ry="1" width="4" x="231.40000000000015" y="30.5"><title>2024-10-16 43.17 mins</title></rect><rect fill="#a3e3a6" height="4" rx="1" ry="1" width="4" x="231.40000000000015" y="35.9"><title>2024-10-17 26.78 mins</title></rect><rect fill="#abe7ad" height="4" rx="1" ry="1" width="4" x="231.40000000000015" y="41.300000000000004"><title>2024-10-18 2.63 mins</title></rect><rect fill="#a9e6ab" height="4" rx="1" ry="1" width="4" x="231.40000000000015" y="46.699999999999996"><title>2024-10-19 9.95 mins</title></rect><rect fill="#66bd6a" height="4" rx="1" ry="1" width="4" x="231.40000000000015" y="52.1"><title>2024-10-20 42.98 mins</title></rect><rect fill="#a8e5ab" height="4" rx="1" ry="1" width="4" x="236.80000000000015" y="19.7"><title>2024-10-21 11.0 mins</title></rect><rect fill="#a3e3a5" height="4" rx="1" ry="1" width="4" x="236.80000000000015" y="25.1"><title>2024-10-22 27.25 mins</title></rect><rect fill="#65bd6a" height="4" rx="1" ry="1" width="4" x="236.80000000000015" y="30.5"><title>2024-10-23 52.32 mins</title></rect><rect fill="#66be6b" height="4" rx="1" ry="1" width="4" x="236.80000000000015" y="35.9"><title>2024-10-24 40.37 mins</title></rect><rect fill="#a2e2a4" height="4" rx="1" ry="1" width="4" x="236.80000000000015" y="41.300000000000004"><title>2024-10-25 30.78 mins</title></rect><rect fill="#a5e4a7" height="4" rx="1" ry="1" width="4" x="236.80000000000015" y="46.699999999999996"><title>2024-10-26 21.27 mins</title></rect><rect fill="#a1e2a3" height="4" rx="1" ry="1" width="4" x="236.80000000000015" y="52.1"><title>2024-10-27 34.13 mins</title></rect><rect fill="#aae6ac" height="4" rx="1" ry="1" width="4" x="242.20000000000016" y="19.7"><title>2024-10-28 7.3 mins</title></rect><rect fill="#a9e5ab" height="4" rx="1" ry="1" width="4" x="242.20000000000016" y="25.1"><title>2024-10-29 10.62 mins</title></rect><rect fill="#EBEDF0" height="4" rx="1" ry="1" width="4" x="242.20000000000016" y="30.5"><title>2024-10-30</title></rect><rect fill="#aae6ac" height="4" rx="1" ry="1" width="4" x="242.20000000000016" y="35.9"><title>2024-10-31 6.55 mins</title></rect><rect fill="#a8e5aa" height="4" rx="1" ry="1" width="4" x="242.20000000000016" y="41.300000000000004"><title>2024-11-01 13.38 mins</title></rect><rect fill="#63bb68" height="4" rx="1" ry="1" width="4" x="242.20000000000016" y="46.699999999999996"><title>2024-11-02 70.27 mins</title></rect><rect fill="#66be6b" height="4" rx="1" ry="1" width="4" x="242.20000000000016" y="52.1"><title>2024-11-03 37.33 mins</title></rect><text fill="#000000" style="font-size:2.5px; font-family:Arial" x="247.60000000000016" y="18.3">Nov</text><rect fill="#66be6b" height="4" rx="1" ry="1" width="4" x="247.60000000000016" y="19.7"><title>2024-11-04 36.93 mins</title></rect><rect fill="#abe6ad" height="4" rx="1" ry="1" width="4" x="247.60000000000016" y="25.1"><title>2024-11-05 4.18 mins</title></rect><rect fill="#ace7ae" height="4" rx="1" ry="1" width="4" x="247.60000000000016" y="30.5"><title>2024-11-06 0.75 mins</title></rect><rect fill="#abe7ad" height="4" rx="1" ry="1" width="4" x="247.60000000000016" y="35.9"><title>2024-11-07 2.48 mins</title></rect><rect fill="#a3e3a5" height="4" rx="1" ry="1" width="4" x="247.60000000000016" y="41.300000000000004"><title>2024-11-08 28.22 mins</title></rect><rect fill="#a4e3a6" height="4" rx="1" ry="1" width="4" x="247.60000000000016" y="46.699999999999996"><title>2024-11-09 25.35 mins</title></rect><rect fill="#a1e2a3" height="4" rx="1" ry="1" width="4" x="247.60000000000016" y="52.1"><title>2024-11-10 34.6 mins</title></rect><rect fill="#a5e4a7" height="4" rx="1" ry="1" width="4" x="253.00000000000017" y="19.7"><title>2024-11-11 23.1 mins</title></rect><rect fill="#a6e4a8" height="4" rx="1" ry="1" width="4" x="253.00000000000017" y="25.1"><title>2024-11-12 17.5 mins</title></rect><rect fill="#EBEDF0" height="4" rx="1" ry="1" width="4" x="253.00000000000017" y="30.5"><title>2024-11-13</title></rect><rect fill="#EBEDF0" height="4" rx="1" ry="1" width="4" x="253.00000000000017" y="35.9"><title>2024-11-14</title></rect><rect fill="#EBEDF0" height="4" rx="1" ry="1" width="4" x="253.00000000000017" y="41.300000000000004"><title>2024-11-15</title></rect><rect fill="#EBEDF0" height="4" rx="1" ry="1" width="4" x="253.00000000000017" y="46.699999999999996"><title>2024-11-16</title></rect><rect fill="#EBEDF0" height="4" rx="1" ry="1" width="4" x="253.00000000000017" y="52.1"><title>2024-11-17</title></rect><rect fill="#EBEDF0" height="4" rx="1" ry="1" width="4" x="258.40000000000015" y="19.7"><title>2024-11-18</title></rect><rect fill="#EBEDF0" height="4" rx="1" ry="1" width="4" x="258.40000000000015" y="25.1"><title>2024-11-19</title></rect><rect fill="#EBEDF0" height="4" rx="1" ry="1" width="4" x="258.40000000000015" y="30.5"><title>2024-11-20</title></rect><rect fill="#EBEDF0" height="4" rx="1" ry="1" width="4" x="258.40000000000015" y="35.9"><title>2024-11-21</title></rect><rect fill="#EBEDF0" height="4" rx="1" ry="1" width="4" x="258.40000000000015" y="41.300000000000004"><title>2024-11-22</title></rect><rect fill="#EBEDF0" height="4" rx="1" ry="1" width="4" x="258.40000000000015" y="46.699999999999996"><title>2024-11-23</title></rect><rect fill="#EBEDF0" height="4" rx="1" ry="1" width="4" x="258.40000000000015" y="52.1"><title>2024-11-24</title></rect><rect fill="#EBEDF0" height="4" rx="1" ry="1" width="4" x="263.8000000000001" y="19.7"><title>2024-11-25</title></rect><rect fill="#EBEDF0" height="4" rx="1" ry="1" width="4" x="263.8000000000001" y="25.1"><title>2024-11-26</title></rect><rect fill="#EBEDF0" height="4" rx="1" ry="1" width="4" x="263.8000000000001" y="30.5"><title>2024-11-27</title></rect><rect fill="#EBEDF0" height="4" rx="1" ry="1" width="4" x="263.8000000000001" y="35.9"><title>2024-11-28</title></rect><rect fill="#EBEDF0" height="4" rx="1" ry="1" width="4" x="263.8000000000001" y="41.300000000000004"><title>2024-11-29</title></rect><rect fill="#EBEDF0" height="4" rx="1" ry="1" width="4" x="263.8000000000001" y="46.699999999999996"><title>2024-11-30</title></rect><rect fill="#EBEDF0" height="4" rx="1" ry="1" width="4" x="263.8000000000001" y="52.1"><title>2024-12-01</title></rect><text fill="#000000" style="font-size:2.5px; font-family:Arial" x="269.2000000000001" y="18.3">Dec</text><rect fill="#EBEDF0" height="4" rx="1" ry="1" width="4" x="269.2000000000001" y="19.7"><title>2024-12-02</title></rect><rect fill="#EBEDF0" height="4" rx="1" ry="1" width="4" x="269.2000000000001" y="25.1"><title>2024-12-03</title></rect><rect fill="#EBEDF0" height="4" rx="1" ry="1" width="4" x="269.2000000000001" y="30.5"><title>2024-12-04</title></rect><rect fill="#EBEDF0" height="4" rx="1" ry="1" width="4" x="269.2000000000001" y="35.9"><title>2024-12-05</title></rect><rect fill="#EBEDF0" height="4" rx="1" ry="1" width="4" x="269.2000000000001" y="41.300000000000004"><title>2024-12-06</title></rect><rect fill="#EBEDF0" height="4" rx="1" ry="1" width="4" x="269.2000000000001" y="46.699999999999996"><title>2024-12-07</title></rect><rect fill="#EBEDF0" height="4" rx="1" ry="1" width="4" x="269.2000000000001" y="52.1"><title>2024-12-08</title></rect><rect fill="#EBEDF0" height="4" rx="1" ry="1" width="4" x="274.6000000000001" y="19.7"><title>2024-12-09</title></rect><rect fill="#EBEDF0" height="4" rx="1" ry="1" width="4" x="274.6000000000001" y="25.1"><title>2024-12-10</title></rect><rect fill="#EBEDF0" height="4" rx="1" ry="1" width="4" x="274.6000000000001" y="30.5"><title>2024-12-11</title></rect><rect fill="#EBEDF0" height="4" rx="1" ry="1" width="4" x="274.6000000000001" y="35.9"><title>2024-12-12</title></rect><rect fill="#EBEDF0" height="4" rx="1" ry="1" width="4" x="274.6000000000001" y="41.300000000000004"><title>2024-12-13</title></rect><rect fill="#EBEDF0" height="4" rx="1" ry="1" width="4" x="274.6000000000001" y="46.699999999999996"><title>2024-12-14</title></rect><rect fill="#EBEDF0" height="4" rx="1" ry="1" width="4" x="274.6000000000001" y="52.1"><title>2024-12-15</title></rect><rect fill="#EBEDF0" height="4" rx="1" ry="1" width="4" x="280.00000000000006" y="19.7"><title>2024-12-16</title></rect><rect fill="#EBEDF0" height="4" rx="1" ry="1" width="4" x="280.00000000000006" y="25.1"><title>2024-12-17</title></rect><rect fill="#EBEDF0" height="4" rx="1" ry="1" width="4" x="280.00000000000006" y="30.5"><title>2024-12-18</title></rect><rect fill="#EBEDF0" height="4" rx="1" ry="1" width="4" x="280.00000000000006" y="35.9"><title>2024-12-19</title></rect><rect fill="#EBEDF0" height="4" rx="1" ry="1" width="4" x="280.00000000000006" y="41.300000000000004"><title>2024-12-20</title></rect><rect fill="#EBEDF0" height="4" rx="1" ry="1" width="4" x="280.00000000000006" y="46.699999999999996"><title>2024-12-21</title></rect><rect fill="#EBEDF0" height="4" rx="1" ry="1" width="4" x="280.00000000000006" y="52.1"><title>2024-12-22</title></rect><rect fill="#EBEDF0" height="4" rx="1" ry="1" width="4" x="285.40000000000003" y="19.7"><title>2024-12-23</title></rect><rect fill="#EBEDF0" height="4" rx="1" ry="1" width="4" x="285.40000000000003" y="25.1"><title>2024-12-24</title></rect><rect fill="#EBEDF0" height="4" rx="1" ry="1" width="4" x="285.40000000000003" y="30.5"><title>2024-12-25</title></rect><rect fill="#EBEDF0" height="4" rx="1" ry="1" width="4" x="285.40000000000003" y="35.9"><title>2024-12-26</title></rect><rect fill="#EBEDF0" height="4" rx="1" ry="1" width="4" x="285.40000000000003" y="41.300000000000004"><title>2024-12-27</title></rect><rect fill="#EBEDF0" height="4" rx="1" ry="1" width="4" x="285.40000000000003" y="46.699999999999996"><title>2024-12-28</title></rect><rect fill="#EBEDF0" height="4" rx="1" ry="1" width="4" x="285.40000000000003" y="52.1"><title>2024-12-29</title></rect><rect fill="#EBEDF0" height="4" rx="1" ry="1" width="4" x="290.8" y="19.7"><title>2024-12-30</title></rect><rect fill="#EBEDF0" height="4" rx="1" ry="1" width="4" x="290.8" y="25.1"><title>2024-12-31</title></rect></svg>